<svg width="157" height="79" viewBox="0 0 157 79" fill="none" xmlns="http://www.w3.org/2000/svg">
<g filter="url(#filter0_b_34_38)">
<path d="M7.36328 49.8477C7.20703 51.1888 6.45833 51.8594 5.11719 51.8594C3.41146 51.8594 2.55859 50.6289 2.55859 48.168C2.55859 44.1836 2.77344 40.7786 3.20312 37.9531C3.54167 35.7526 3.71094 33.5911 3.71094 31.4688C3.71094 30.9609 3.8737 30.5378 4.19922 30.1992C4.52474 29.8477 4.98047 29.6719 5.56641 29.6719C7.51953 29.6719 8.49609 30.8568 8.49609 33.2266C8.49609 33.9948 8.15104 35.9544 7.46094 39.1055C7.04427 40.9805 6.83594 42.3411 6.83594 43.1875C10.5599 35.0104 13.9193 30.9219 16.9141 30.9219C18.125 30.9219 19.0951 31.4036 19.8242 32.3672C20.5664 33.3307 20.9505 35.4661 20.9766 38.7734C20.9896 41.7943 21.1458 43.3047 21.4453 43.3047C21.6797 43.3047 22.4935 41.8398 23.8867 38.9102C25.4362 35.668 26.7578 33.526 27.8516 32.4844C28.9583 31.4427 30.1172 30.9219 31.3281 30.9219C32.7734 30.9219 33.8216 31.5469 34.4727 32.7969C35.1237 34.0339 35.5794 36.1302 35.8398 39.0859C36.0352 41.4297 36.2956 43.2005 36.6211 44.3984C36.9596 45.5964 37.5326 46.3906 38.3398 46.7812C38.9909 47.0938 39.3164 47.5625 39.3164 48.1875C39.3164 48.7474 38.9453 49.3138 38.2031 49.8867C37.4609 50.4466 36.7057 50.7266 35.9375 50.7266C34.6094 50.7266 33.5677 50.0755 32.8125 48.7734C32.0703 47.4583 31.569 44.8281 31.3086 40.8828C31.1654 38.9818 31.0091 37.7253 30.8398 37.1133C30.6836 36.4883 30.4427 36.1758 30.1172 36.1758C29.8307 36.1758 29.4141 36.6445 28.8672 37.582C28.3203 38.5065 27.3763 40.3555 26.0352 43.1289C24.8503 45.6289 23.8281 47.3737 22.9688 48.3633C22.1224 49.3529 21.2109 49.8477 20.2344 49.8477C19.4792 49.8477 18.7174 49.5221 17.9492 48.8711C17.194 48.2201 16.7839 45.8568 16.7188 41.7812C16.6536 38.1484 16.4193 36.332 16.0156 36.332C15.4688 36.332 14.1536 37.9466 12.0703 41.1758C9.98698 44.4049 8.41797 47.2956 7.36328 49.8477ZM59.0547 39.4961C58.8464 42.6602 58.4753 45.7331 57.9414 48.7148C57.4206 51.6836 56.6458 54.3789 55.6172 56.8008C54.6016 59.2227 53.5013 60.8698 52.3164 61.7422C51.1445 62.6276 49.7448 63.0703 48.1172 63.0703C46.3724 63.0703 44.6992 62.7383 43.0977 62.0742H43.1172C41.737 61.5013 40.5326 60.7331 39.5039 59.7695C38.4883 58.806 37.9805 57.9922 37.9805 57.3281C37.9805 56.7161 38.1302 56.2279 38.4297 55.8633C38.7422 55.4987 39.1458 55.3164 39.6406 55.3164C40.0703 55.3164 40.4284 55.4987 40.7148 55.8633C42.3815 58.0117 44.8034 59.0859 47.9805 59.0859C49.2695 59.0859 50.513 57.7383 51.7109 55.043C52.9089 52.3477 53.6641 49.112 53.9766 45.3359C49.9531 48.513 46.8542 50.1016 44.6797 50.1016C43.2734 50.1016 42.1602 49.5417 41.3398 48.4219C40.5195 47.3021 40.1094 45.9544 40.1094 44.3789C40.1094 42.8034 40.474 40.5182 41.2031 37.5234C41.9453 34.5156 42.5703 32.6536 43.0781 31.9375C43.599 31.2083 44.4388 30.8438 45.5977 30.8438C46.2227 30.8438 46.7044 31.1172 47.043 31.6641C47.3815 32.1979 47.5508 32.7904 47.5508 33.4414C47.5508 33.6367 47.082 34.737 46.1445 36.7422C44.9987 39.1901 44.4258 41.2995 44.4258 43.0703C44.4258 43.9818 44.5495 44.6784 44.7969 45.1602C45.0573 45.6289 45.3242 45.8633 45.5977 45.8633C46.2227 45.8633 46.9779 45.6745 47.8633 45.2969C48.7617 44.9193 49.8099 44.2682 51.0078 43.3438C52.2188 42.4062 53 41.6966 53.3516 41.2148C53.7031 40.7331 53.9831 40.1146 54.1914 39.3594C54.3997 38.5911 54.5625 36.9115 54.6797 34.3203C54.7448 32.8099 54.8164 31.8594 54.8945 31.4688C54.9857 31.0781 55.2201 30.7201 55.5977 30.3945C55.9753 30.069 56.4831 29.9062 57.1211 29.9062C57.9805 29.9062 58.5859 30.0885 58.9375 30.4531C59.3021 30.8177 59.4844 31.6771 59.4844 33.0312L59.0547 39.4961Z" fill="white"/>
</g>
<path d="M67.376 61V20.232H78.512V51.464H92.272V61H67.376ZM96.082 61V32.904H106.066V61H96.082ZM95.506 24.2C95.506 22.7493 96.0607 21.448 97.17 20.296C98.322 19.1013 99.5593 18.4613 100.882 18.376C100.925 18.376 100.946 18.376 100.946 18.376C100.989 18.376 101.031 18.376 101.074 18.376C102.482 18.376 103.741 18.9733 104.85 20.168C105.959 21.3627 106.514 22.7067 106.514 24.2C106.514 25.8213 105.981 27.08 104.914 27.976C103.847 28.872 102.653 29.3627 101.33 29.448C101.287 29.448 101.223 29.448 101.138 29.448C101.095 29.448 101.053 29.448 101.01 29.448C100.967 29.448 100.903 29.448 100.818 29.448C100.775 29.448 100.733 29.448 100.69 29.448C99.3673 29.3627 98.1727 28.872 97.106 27.976C96.0393 27.08 95.506 25.8213 95.506 24.2ZM109.186 58.632L111.298 51.016C112.535 52.0827 113.858 52.936 115.266 53.576C116.674 54.1733 118.188 54.6 119.81 54.856C119.852 54.856 119.895 54.8773 119.938 54.92C120.023 54.92 120.13 54.92 120.258 54.92C120.343 54.92 120.428 54.9413 120.514 54.984C120.599 54.984 120.706 54.984 120.834 54.984C121.047 54.984 121.282 54.984 121.538 54.984C121.794 54.9413 122.028 54.8987 122.242 54.856C123.01 54.728 123.692 54.4933 124.29 54.152C124.887 53.8107 125.186 53.3627 125.186 52.808C125.186 52.68 125.164 52.5307 125.122 52.36C125.079 52.1893 125.036 51.9973 124.994 51.784C124.951 51.6987 124.908 51.6347 124.866 51.592C124.823 51.5067 124.78 51.4213 124.738 51.336C124.439 50.8667 123.927 50.5253 123.202 50.312C122.519 50.056 121.794 49.8427 121.026 49.672C120.77 49.6293 120.492 49.5867 120.194 49.544C119.938 49.4587 119.66 49.3947 119.362 49.352C119.148 49.3093 118.935 49.2667 118.722 49.224C118.508 49.1813 118.316 49.1387 118.146 49.096C116.524 48.5413 114.988 47.7947 113.538 46.856C112.13 45.8747 111.234 44.5093 110.85 42.76C110.85 42.6747 110.828 42.5893 110.786 42.504C110.786 42.4187 110.786 42.312 110.786 42.184C110.786 42.1413 110.764 42.0987 110.722 42.056C110.722 42.0133 110.722 41.9707 110.722 41.928C110.722 41.8 110.7 41.672 110.658 41.544C110.658 41.3733 110.658 41.224 110.658 41.096C110.658 40.968 110.658 40.84 110.658 40.712C110.658 40.584 110.679 40.456 110.722 40.328C110.807 39.1333 111.148 37.9813 111.746 36.872C112.343 35.7627 113.111 34.8453 114.05 34.12C114.946 33.48 115.948 32.9893 117.058 32.648C118.167 32.3067 119.298 32.0933 120.45 32.008C120.62 31.9653 120.812 31.944 121.026 31.944C121.239 31.944 121.452 31.944 121.666 31.944C122.092 31.944 122.519 31.9653 122.946 32.008C123.415 32.008 123.884 32.0507 124.354 32.136C125.932 32.3067 127.49 32.6267 129.026 33.096C130.604 33.5653 132.012 34.056 133.25 34.568L131.202 41.416C130.007 40.6053 128.748 39.944 127.426 39.432C126.103 38.8773 124.652 38.6 123.074 38.6C122.903 38.6 122.711 38.6 122.498 38.6C122.327 38.6 122.135 38.6213 121.922 38.664C121.41 38.7493 120.94 38.92 120.514 39.176C120.087 39.3893 119.81 39.7733 119.682 40.328L119.554 40.648C119.554 40.6907 119.554 40.7333 119.554 40.776C119.554 40.776 119.554 40.7973 119.554 40.84C119.596 41.224 119.746 41.5653 120.002 41.864C120.3 42.1627 120.642 42.3547 121.026 42.44C121.538 42.6107 122.028 42.7813 122.498 42.952C123.01 43.1227 123.522 43.272 124.034 43.4C124.162 43.4427 124.29 43.4853 124.418 43.528C124.588 43.5707 124.738 43.6133 124.866 43.656C125.42 43.784 125.954 43.9333 126.466 44.104C127.02 44.232 127.554 44.4027 128.066 44.616C129.9 45.2987 131.308 46.3013 132.29 47.624C133.271 48.9467 133.847 50.3333 134.018 51.784C134.06 51.9547 134.082 52.1253 134.082 52.296C134.082 52.424 134.082 52.552 134.082 52.68C134.082 52.8507 134.082 53.0213 134.082 53.192C134.082 53.32 134.06 53.4693 134.018 53.64C133.89 54.7067 133.527 55.7733 132.93 56.84C132.375 57.864 131.586 58.76 130.562 59.528C129.452 60.3813 128.194 60.9787 126.786 61.32C125.42 61.704 124.012 61.9173 122.562 61.96C122.434 61.96 122.306 61.96 122.178 61.96C122.092 61.96 121.986 61.96 121.858 61.96C121.474 61.96 121.09 61.9387 120.706 61.896C120.364 61.896 120.002 61.8747 119.618 61.832C117.74 61.6187 115.884 61.2347 114.05 60.68C112.258 60.0827 110.636 59.4 109.186 58.632ZM140.848 61V39.816H136.688V32.904H140.848V24.456H150.576V32.904H154.864V39.816H150.576V61H140.848Z" fill="white"/>
<defs>
<filter id="filter0_b_34_38" x="-1.44141" y="25.6719" width="64.9258" height="41.3984" filterUnits="userSpaceOnUse" color-interpolation-filters="sRGB">
<feFlood flood-opacity="0" result="BackgroundImageFix"/>
<feGaussianBlur in="BackgroundImageFix" stdDeviation="2"/>
<feComposite in2="SourceAlpha" operator="in" result="effect1_backgroundBlur_34_38"/>
<feBlend mode="normal" in="SourceGraphic" in2="effect1_backgroundBlur_34_38" result="shape"/>
</filter>
</defs>
</svg>
